<?xml version="1.0" encoding="UTF-8" standalone="no"?>
<!-- Created with Inkscape (http://www.inkscape.org/) -->

<svg
   width="210mm"
   height="297mm"
   viewBox="0 0 210 297"
   version="1.1"
   id="svg1"
   xml:space="preserve"
   inkscape:version="1.4.4 (dcaf3e7d9e, 2026-05-05)"
   sodipodi:docname="logo-black.svg"
   xmlns:inkscape="http://www.inkscape.org/namespaces/inkscape"
   xmlns:sodipodi="http://sodipodi.sourceforge.net/DTD/sodipodi-0.dtd"
   xmlns="http://www.w3.org/2000/svg"
   xmlns:svg="http://www.w3.org/2000/svg"><sodipodi:namedview
     id="namedview1"
     pagecolor="#ffffff"
     bordercolor="#000000"
     borderopacity="0.25"
     inkscape:showpageshadow="2"
     inkscape:pageopacity="0.0"
     inkscape:pagecheckerboard="0"
     inkscape:deskcolor="#d1d1d1"
     inkscape:document-units="mm"
     inkscape:zoom="0.98572654"
     inkscape:cx="288.6196"
     inkscape:cy="516.37039"
     inkscape:window-width="1920"
     inkscape:window-height="1011"
     inkscape:window-x="0"
     inkscape:window-y="0"
     inkscape:window-maximized="1"
     inkscape:current-layer="layer1" /><defs
     id="defs1" /><g
     inkscape:label="Camada 1"
     inkscape:groupmode="layer"
     id="layer1"><path
       style="fill:#0d0d0d;stroke:none"
       d="m 125.67605,113.79462 h -0.52917 c -2.18557,3.2557 1.34534,9.14637 1.39968,13.22916 0.12662,9.51347 -5.76139,18.14676 -14.09968,22.42099 -21.070492,10.80079 -44.156414,-14.42553 -32.15933,-34.59182 4.306838,-7.23951 12.239508,-12.43487 20.78225,-12.43542 2.73143,-1.7e-4 5.32287,0.19794 7.9375,1.05854 1.42438,0.46884 3.29744,1.81435 4.7625,1.86372 0.98868,0.0333 1.61105,-0.89052 2.11666,-1.59934 -16.240114,-9.478812 -38.59913,0.0266 -41.198645,19.31458 -0.534321,3.96458 -0.301854,7.77568 0.757615,11.64167 0.943241,3.44188 2.708935,6.74546 4.93603,9.525 12.481748,15.5779 37.32012,12.55979 46.01974,-5.29167 4.15057,-8.5169 2.7564,-16.77305 -0.72515,-25.13541 m -3.43959,-13.32492 c -4.65359,1.34564 0.96479,5.29743 2.64584,6.97492 0.59583,0.59456 1.62673,2.03515 2.61807,1.76062 1.67418,-0.46363 1.7427,-3.63932 1.43438,-4.93562 -0.70558,-2.96656 -3.78959,-4.641002 -6.69829,-3.79992 m -3.69885,3.09763 c -0.9672,0.25384 -1.19677,1.27455 -0.69944,2.0252 1.22877,1.85466 3.33967,3.47105 4.92746,5.02586 0.60761,0.59499 1.40419,1.58043 2.36553,1.20083 1.15195,-0.45486 0.86236,-1.50525 0.23988,-2.25794 -1.40452,-1.69831 -3.14765,-3.21964 -4.72208,-4.76127 -0.52641,-0.51545 -1.26445,-1.45496 -2.11135,-1.23268 m 0.25927,6.7877 c -0.051,2.32353 -2.97724,4.28476 -4.4969,5.82084 -3.50707,3.54497 -6.81663,7.30156 -10.32079,10.84791 -1.13241,1.14605 -3.74051,2.89461 -4.140854,4.49792 -0.49293,1.97414 3.014954,3.65598 4.396044,2.36451 6.85348,-6.40874 12.94835,-13.71495 19.58958,-20.35618 -1.45301,-2.06272 -3.50785,-3.77622 -5.29166,-5.55625 -0.58916,-0.58791 -1.4545,-1.79737 -2.38125,-1.79737 -1.73328,0 -3.90733,3.57351 -5.02811,4.70779 -3.88513,3.93191 -7.87377,7.8192 -11.595534,11.90523 -1.056,1.15936 -3.544298,2.98185 -3.922398,4.49894 -0.27713,1.11193 1.971568,3.36074 3.083538,3.08353 2.019754,-0.50351 4.600114,-4.19488 5.933124,-5.72937 1.61687,-1.86126 3.44638,-3.53883 5.17836,-5.29166 2.92941,-2.96469 5.57004,-6.58195 8.99685,-8.99584 m -21.961444,-4.09879 c -5.922118,0.70521 -11.645468,5.85138 -14.215021,10.97796 -1.003266,2.00164 -1.700766,4.13696 -2.031739,6.35 -0.112032,0.7491 -0.255996,2.15178 0.888682,2.15178 0.953515,0 1.052795,-1.19774 1.183684,-1.8874 0.409674,-2.1586 1.180396,-4.14873 2.211396,-6.08521 1.86683,-3.5064 5.0241,-6.26846 8.52444,-8.07265 1.27472,-0.65704 3.908868,-0.77911 4.819048,-1.86516 0.86586,-1.03315 -0.50335,-1.67377 -1.38049,-1.56932 m 19.276204,2.30142 c 1.96737,0.004 -2.08268,3.98436 -2.43044,4.36767 -3.63157,4.00274 -7.46721,7.8947 -11.28849,11.7172 -0.72647,0.72671 -2.787154,3.66864 -3.948334,3.46143 -1.65377,-0.29511 2.427244,-4.25002 2.935944,-4.79476 3.5205,-3.76996 7.17257,-7.43568 10.80096,-11.10208 0.84389,-0.85274 2.6251,-3.65204 3.93036,-3.64946 m 4.256,4.1578 c 2.1846,-0.2888 -1.85769,3.8318 -2.2018,4.20924 -3.54958,3.89351 -7.28586,7.69723 -11.01063,11.422 -0.84015,0.84015 -3.19073,4.12585 -4.47729,3.95895 -1.67435,-0.21721 2.4592,-4.30734 2.89367,-4.7527 l 10.82036,-11.10209 c 0.97429,-1.00184 2.52448,-3.54356 3.97569,-3.7354 m -26.441592,16.24799 c -3.88029,0.87227 -4.90054,8.9611 -6.07215,12.08325 -0.32651,0.8701 -1.90328,3.92486 0.26295,3.57881 1.27592,-0.20382 2.5174,-1.20945 3.69253,-1.72591 3.18729,-1.40079 8.795502,-2.44771 9.770602,-6.35082 0.45395,-1.81707 -4.349844,-5.18654 -5.537272,-6.34877 -0.54388,-0.53234 -1.25142,-1.43106 -2.11666,-1.23656 m -4.23334,12.61242 c 0.77481,-2.38121 1.58385,-4.74636 2.30714,-7.14375 0.30532,-1.01199 0.64592,-2.44642 1.67611,-2.97615 1.40108,-0.72046 5.910148,3.91319 5.540118,5.35331 -0.27477,1.0694 -1.45509,1.58417 -2.37962,1.93946 -2.356548,0.90562 -4.690688,2.24446 -7.143748,2.82713 m 3.81911,-6.07787 c -1.41662,0.97075 0.24959,3.28195 1.65283,2.17322 1.36684,-1.07998 -0.23599,-3.14412 -1.65283,-2.17322 z"
       id="path1" /></g></svg>
